<?xml version="1.0" encoding="utf-8"?>
<!-- Generator: Adobe Illustrator 28.1.0, SVG Export Plug-In . SVG Version: 6.00 Build 0)  -->
<svg version="1.1" id="Layer_1" xmlns="http://www.w3.org/2000/svg" xmlns:xlink="http://www.w3.org/1999/xlink" x="0px" y="0px"
	 viewBox="0 0 523 80" style="enable-background:new 0 0 523 80;" xml:space="preserve">
<style type="text/css">
	.st0{fill:#E6D3B5;}
	.st1{opacity:0.3;fill:#E1CEB0;}
	.st2{opacity:0.3;fill:#F4F0EA;}
	.st3{opacity:0.2;fill:#F4F0EA;}
	.st4{opacity:0.2;fill:#0D0D0B;}
	.st5{opacity:0.3;fill:#0D0D0B;}
	.st6{opacity:0.35;fill:#0D0D0B;}
	.st7{fill:#FCCBA1;}
	.st8{fill:#A38955;}
	.st9{fill:#CCB287;}
	.st10{fill:#D6BA93;}
	.st11{fill:#1F86E2;}
	.st12{fill:#0D60AC;}
	.st13{fill:url(#SVGID_1_);}
	.st14{fill:url(#SVGID_00000056399758951253828220000011243550115292403361_);}
	.st15{fill:url(#SVGID_00000096028430730576243560000015057087960837019560_);}
	.st16{fill:url(#SVGID_00000146463455267184325810000018216052083561152923_);}
	.st17{fill:url(#SVGID_00000003067843336433737770000008734956275131678640_);}
	.st18{fill:url(#SVGID_00000015354351811705702730000012551808766260330893_);}
	.st19{fill:url(#SVGID_00000170976180954011836180000017146500072078408856_);}
	.st20{fill:url(#SVGID_00000134209078347840742860000013614196312828230306_);}
	.st21{fill:url(#SVGID_00000147197140010439316850000004210956383761957280_);}
	.st22{fill:url(#SVGID_00000053523346055934973950000015818165006473030540_);}
	.st23{fill:url(#SVGID_00000022540534776092952410000017257956400647814571_);}
	.st24{fill:url(#SVGID_00000000212470899485956640000010544036261625134781_);}
	.st25{fill:url(#SVGID_00000021812422275095602530000008326777750657865405_);}
	.st26{fill:url(#SVGID_00000152967130476395182010000012424389338979488139_);}
	.st27{fill:url(#SVGID_00000106830192776494611740000001720871173062960788_);}
	.st28{fill:url(#SVGID_00000107557234348261900690000004950945646187801740_);}
	.st29{fill:url(#SVGID_00000151501710944682384320000004342071684350267047_);}
	.st30{fill:url(#SVGID_00000115500862865819086470000008419844959729517228_);}
	.st31{opacity:0.5;}
	.st32{fill:url(#SVGID_00000091715692239762910270000009323295526979992993_);}
	.st33{opacity:0.43;}
	.st34{fill:#E3FBB6;}
	.st35{fill:url(#SVGID_00000134956934739364701960000004568676553876596626_);}
	.st36{opacity:0.31;}
	.st37{fill:url(#SVGID_00000097469965801037630420000015968138101037593014_);}
	.st38{fill:url(#SVGID_00000022531382692781803850000013650722875257808786_);}
	.st39{fill:url(#SVGID_00000164492383475614972080000003128767490142940091_);}
	.st40{fill:url(#SVGID_00000135649057599869808080000008744270852797745070_);}
	.st41{fill:url(#SVGID_00000029725658312812411850000007454779173976153495_);}
	.st42{fill:#D1F886;}
	.st43{fill:#B2F335;}
	.st44{fill:url(#SVGID_00000181772337998038746270000014612443682123238281_);}
	.st45{fill:#39B54A;}
	.st46{fill:#8CD901;}
	.st47{fill:#C3A383;}
	.st48{fill:url(#SVGID_00000065760876317869514210000007898563868726662827_);}
	.st49{fill:url(#SVGID_00000083081816421117613560000014901604893930529424_);}
	.st50{fill:url(#SVGID_00000141417549070484710730000011846127899459158964_);}
	.st51{fill:url(#SVGID_00000005246338090151812720000011035313377039414453_);}
	.st52{fill:url(#SVGID_00000161633462586335087100000017888674009926535848_);}
	.st53{fill:url(#SVGID_00000173136745992492719470000009438077745051291307_);}
	.st54{fill:url(#SVGID_00000080898356933841781050000011181582781382878128_);}
	.st55{fill:url(#SVGID_00000116231338513112160610000006979988067848825738_);}
	.st56{fill:url(#SVGID_00000034081795000535465640000006867836467550382752_);}
	.st57{fill:url(#SVGID_00000039116276774899197390000005284133837888359068_);}
	.st58{fill:url(#SVGID_00000142893272147993319500000004096752824605310112_);}
	.st59{fill:url(#SVGID_00000040554472988011047370000000385957397624274307_);}
	.st60{fill:url(#SVGID_00000156576141828905745410000001442967878968417153_);}
	.st61{fill:url(#SVGID_00000083081221685130086910000014917512939037167787_);}
	.st62{fill:url(#SVGID_00000132796977648245211850000013827268984255933589_);}
	.st63{fill:url(#SVGID_00000080196591633869124080000000892839872450680230_);}
	.st64{fill:url(#SVGID_00000011014093980938433480000017008743868421788095_);}
	.st65{fill:url(#SVGID_00000012474154554866361640000005752542943430274731_);}
	.st66{fill:url(#SVGID_00000091707404945492443620000007265729966022159232_);}
	.st67{fill:url(#SVGID_00000023979493493706593130000006824797670954229901_);}
	.st68{fill:url(#SVGID_00000162327287706292088500000014587285982819524496_);}
	.st69{fill:url(#SVGID_00000005258638165312494090000018054114062181211580_);}
	.st70{fill:url(#SVGID_00000086667098553921707610000017826267183734031536_);}
	.st71{fill:url(#SVGID_00000173857485012315768380000006387167455257680040_);}
	.st72{fill:url(#SVGID_00000147207888639876619090000012318540459264943505_);}
	.st73{fill:url(#SVGID_00000063594060030438424240000010589881840684140981_);}
</style>
<g>
	<path class="st12" d="M331.4,29.6c-2.54-2.22-3.99-3.51-6.39-6.2H198.17c-3.18,3.17-3.13,3.24-6.35,6.3v20.06
		c0.06,0,3.99,3.63,6.58,6.19h126.5c2.52-2.56,6.57-6.09,6.66-6.09V29.6C331.5,29.6,331.44,29.64,331.4,29.6z"/>
	<path class="st12" d="M336.32,27.36c-3.11-2.63-4.9-4.16-7.86-7.36H194.67c-3.91,3.76-3.85,3.85-7.81,7.48v25.17
		c0.08,0,4.9,4.31,8.08,7.35h133.37c3.1-3.04,8.07-7.23,8.18-7.23V27.35C336.44,27.35,336.37,27.4,336.32,27.36z"/>
	<path class="st12" d="M325.37,26.86c-0.5-0.77-0.27-1.47,0.1-2.16c-0.15-0.09-0.26-0.25-0.26-0.42c-0.34-0.06-0.61-0.37-0.36-0.69
		c0.33-0.43,0.76-0.76,1.2-1.09c0.05-0.08,0.11-0.15,0.17-0.23c0.21-0.26,0.54-0.47,0.86-0.7c0.32-0.42,0.57-0.86,0.92-1.3
		c0.04-0.06,0.11-0.1,0.18-0.13c0.02-0.04,0.04-0.09,0.07-0.14H194.8c1.16,1.71,2.86,3.2,3.92,4.95c2.82,0.07,5.59,0.6,8.34,1.15
		c1.51,0.3,3.02,0.58,4.57,0.67c1.46,0.09,2.91,0.09,4.37,0.09c2.84-0.01,102.2,0.15,105.04,0.22c1.49,0.03,2.99,0.01,4.48-0.08
		C325.46,26.97,325.42,26.93,325.37,26.86z"/>
	<path class="st2" d="M194.95,33.16c6.21-2.13,1.72-9.16-1.47-12.02c-3.34,3.23-3.57,3.57-6.98,6.7c0.02,0.01,0.05,0.02,0.07,0.03
		c2.57,1.8,6.39,2.88,8.36,5.27C194.94,33.15,194.94,33.16,194.95,33.16z"/>
	<path class="st3" d="M196.73,40.53c-0.18-2.74,0.14-6.03-2.4-8.03c-2.25-1.77-5.07-2.87-7.46-4.48v24.55
		c1.14-0.64,2.39-1.13,3.47-1.85c0.75-0.5,1.47-1.01,2.39-1.2c0.36-0.08,0.61,0.16,0.66,0.41c0.7,0.37,1.92,1.42,2.5,2.45
		c0.55-2.91,0.95-5.71,1-8.73C196.95,40.42,196.95,43.75,196.73,40.53z"/>
	<path class="st4" d="M199.49,53.34c0.58-2.16,0.27-4.84-0.42-7c-1.55,0.27-2.94,0.64-4.02,1.22c-2.03,1.08-3.14,3.56-8.17,5.39
		c1.55,1.38,5.8,4.93,8.08,7.05C196.57,57.85,198.78,55.94,199.49,53.34z"/>
	<path class="st5" d="M194.95,60h133.37c-2.55-2.46-4.27-5.3-6.86-8.1c-2.52-2.74-5.04-5.37-7.72-7.94
		c9.73-4.31-98.18,0.15-113.6,2.22c0.58,1.86,0.57,3.87,0.16,5.76C199.56,55.32,197,57.23,194.95,60z"/>
	<path class="st4" d="M325.01,30.98c1.68-0.3,3.62-0.02,4.92-1.23c0.23-0.22,0.36,0.4,0.55,0.55c0.03-0.02,0.58-0.56,0.61-0.57
		c1.78-0.9,3.26-1.84,5.23-2.37c0,0,0,0,0,0c-3.02-2.55-4.8-4.08-7.59-7.07c-0.61-0.28-1.09,0.84-1.53,1.3
		c-1.47,1.51-3.2,2.44-5.26,7.68c-0.27,0.7-0.51,1.54-0.73,2.46C322.48,31.48,323.74,31.2,325.01,30.98z"/>
	<path class="st5" d="M331.03,29.88c-0.23,0.11-0.21,0.7-0.36,0.58c-1.32,1.2-3.16,1.19-4.93,1.4c-1.61,0.19-3.17,0.55-4.75,0.85
		c-0.98,4.71-1.59,3.87-3.71,7.84c1.18,0.66,2.33,1.38,3.6,1.9c1.84,0.75,3.66,1.59,5.33,2.62c1.92,1.19,3.1,3.16,4.96,4.42
		c1.39,0.95,3.66,2.7,5.34,3.29V27.35C334.66,27.87,332.7,29.03,331.03,29.88z"/>
	<path class="st6" d="M332.27,50.18c-2.12-1.45-4.23-2.97-6.47-4.28c-1.95-1.14-4.08-1.91-6.06-2.97c-0.95-0.51-1.86-1.05-2.8-1.56
		c-0.49,0.74-1.04,1.37-1.68,1.83c-0.13,0.09-0.27,0.17-0.4,0.25c2.28,2.11,5.1,3.92,6.57,6.54c2.11,3.75,4.02,7.17,7.03,10.02
		c2.82-2.7,7.27-6.55,8.04-7.13C334.83,52.38,333.65,51.12,332.27,50.18z"/>
	<path class="st12" d="M331.43,29.59c-2.54-2.22-3.99-3.51-6.4-6.21H198.15c-3.18,3.17-3.13,3.24-6.36,6.31v20.08
		c0.06,0,3.99,3.64,6.58,6.2h126.53c2.52-2.56,6.57-6.09,6.66-6.09v-20.3C331.52,29.58,331.46,29.62,331.43,29.59z"/>
</g>
</svg>
