<?xml version="1.0" encoding="UTF-8"?>
<svg id="Layer_1" data-name="Layer 1" xmlns="http://www.w3.org/2000/svg" viewBox="0 0 523 134.5">
  <defs>
    <style>
      .cls-1 {
        fill: #1f86e2;
      }

      .cls-1, .cls-2, .cls-3 {
        stroke-width: 0px;
      }

      .cls-2 {
        fill: #0d60ac;
      }

      .cls-3 {
        fill: #f4f0ea;
        opacity: .3;
      }
    </style>
  </defs>
  <path class="cls-1" d="M511.5,35.97v62.68l-5.69,9.88c-1.78,2.86-3.67,5.98-5.22,8.73H22.28c-.59-1.03-1.23-2.11-1.89-3.21l-.65-1.12-.12-.19-8.12-14.09v-62.68l10.8-18.72h478.49c.23.45.45.88.66,1.3l.08.15c2.67,5.15,4.69,8.55,7.17,12.42l.05.07,2.75,4.76Z"/>
  <path class="cls-1" d="M500.52,17.25c-.06.11-.1.24-.14.35-.16.08-.3.18-.41.33-.81,1.09-1.37,2.22-2.12,3.26-.73.55-1.49,1.08-1.99,1.74-.13.19-.27.38-.39.56-.81.64-1.59,1.3-2.25,2.07-.05.05-.08.1-.12.15-.02.01-.04.03-.04.05-.13.14-.25.29-.36.45-.58.8.06,1.58.83,1.73.01.44.25.83.6,1.07-.84,1.72-1.37,3.47-.23,5.4.1.15.2.26.33.35-3.42.24-6.88.29-10.33.2-1.22-.04-27.23-.08-68.8-.13-88.9-.08-248.98-.19-389.75-.28h-5.61c-.29-2.85-.7-5.67-1.14-8.47,4.6-2.16,8.72-5.24,12.41-8.65.07-.05.11-.13.17-.19h469.34Z"/>
  <path class="cls-3" d="M487.49,84.25c-.78,2.81-1.49,5.98-2.46,8.8,1.39-2.99,2.34-7,3.1-9.83.9-3.35,1.9-6.76,2.89-10.24-1.23,3.69-2.46,7.38-3.54,11.27Z"/>
  <path class="cls-1" d="M504.88,41.23c-3.51-5.55-5.51-8.78-8.84-15.52H26.71c-4.4,7.93-4.33,8.11-8.78,15.76v50.21c.09,0,5.51,9.1,9.09,15.5h468.86c3.49-6.4,9.08-15.23,9.2-15.23v-50.74c-.07,0-.15.1-.2.02Z"/>
  <path class="cls-1" d="M504.85,41.26c-3.5-5.55-5.51-8.76-8.83-15.5H26.73c-4.39,7.92-4.32,8.1-8.77,15.75v50.14c.09,0,5.51,9.09,9.08,15.48h468.81c3.48-6.39,9.07-15.22,9.19-15.22v-50.66c-.07,0-.16.1-.2.01Z"/>
  <path class="cls-1" d="M501.46,43.52c-3.1-6.43-4.88-10.16-7.82-17.96H29.14c-3.89,9.18-3.83,9.39-7.77,18.25v55.37c.08,0,4.88,10.53,8.05,17.94h464.08c3.09-7.41,8.04-17.64,8.14-17.63v-55.99c-.06,0-.14.12-.18.02Z"/>
  <path class="cls-3" d="M297.04,88.73c-.47,1.03-.9,2.19-1.49,3.22.84-1.09,1.42-2.56,1.88-3.6.54-1.22,1.15-2.48,1.75-3.75-.75,1.35-1.49,2.7-2.14,4.13Z"/>
  <path class="cls-2" d="M107.89,17.25v100H22.28c-.59-1.03-1.23-2.11-1.89-3.21l-.65-1.12-.12-.19-8.12-14.09v-62.68l10.8-18.72h85.59Z"/>
  <path class="cls-2" d="M511.5,35.97v62.68l-5.69,9.88c-1.78,2.86-3.67,5.98-5.22,8.73h-85.48V17.25h85.59l.75,1.3.08.15,7.17,12.42.05.07,2.75,4.76Z"/>
</svg>