<?xml version="1.0" encoding="utf-8"?>
<!-- Generator: Adobe Illustrator 28.1.0, SVG Export Plug-In . SVG Version: 6.00 Build 0)  -->
<svg version="1.1" id="Layer_1" xmlns="http://www.w3.org/2000/svg" xmlns:xlink="http://www.w3.org/1999/xlink" x="0px" y="0px"
	 viewBox="0 0 523 80" style="enable-background:new 0 0 523 80;" xml:space="preserve">
<style type="text/css">
	.st0{fill:#E6D3B5;}
	.st1{opacity:0.3;fill:#F4F0EA;enable-background:new    ;}
	.st2{fill:#D6BA93;}
</style>
<g>
	<path class="st0" d="M511.5,15.05v50l-5.69,7.88c-1.78,2.28-3.67,4.77-5.22,6.96H22.28c-0.59-0.82-1.23-1.68-1.89-2.56l-0.65-0.89
		l-0.12-0.15L11.5,65.05v-50L22.3,0.12h478.49c0.23,0.36,0.45,0.7,0.66,1.04l0.08,0.12c2.67,4.11,4.69,6.82,7.17,9.91l0.05,0.06
		L511.5,15.05z"/>
	<path class="st0" d="M500.52,0.12c-0.06,0.09-0.1,0.19-0.14,0.28c-0.16,0.06-0.3,0.14-0.41,0.26c-0.81,0.87-1.37,1.77-2.12,2.6
		c-0.73,0.44-1.49,0.86-1.99,1.39c-0.13,0.15-0.27,0.3-0.39,0.45c-0.81,0.51-1.59,1.04-2.25,1.65c-0.05,0.04-0.08,0.08-0.12,0.12
		c-0.02,0.01-0.04,0.02-0.04,0.04c-0.13,0.11-0.25,0.23-0.36,0.36c-0.58,0.64,0.06,1.26,0.83,1.38c0.01,0.35,0.25,0.66,0.6,0.85
		c-0.84,1.37-1.37,2.77-0.23,4.31c0.1,0.12,0.2,0.21,0.33,0.28c-3.42,0.19-6.88,0.23-10.33,0.16c-1.22-0.03-27.23-0.06-68.8-0.1
		C326.2,14.09,166.12,14,25.35,13.93c-1.14,0-2.3,0-3.45,0c-0.01,0-0.04,0-0.05,0c-0.71,0-1.41,0-2.12,0
		c-0.29-2.27-0.7-4.52-1.14-6.76c4.6-1.72,8.72-4.18,12.41-6.9c0.07-0.04,0.11-0.1,0.17-0.15H415.1
		C415.1,0.12,500.52,0.12,500.52,0.12z"/>
	<path class="st1" d="M487.49,53.56c-0.78,2.24-1.49,4.77-2.46,7.02c1.39-2.38,2.34-5.58,3.1-7.84c0.9-2.67,1.9-5.4,2.89-8.17
		C489.8,47.51,488.57,50.46,487.49,53.56z"/>
	<path class="st0" d="M504.88,19.24c-3.51-4.43-5.51-7-8.84-12.38H26.71c-4.4,6.33-4.33,6.47-8.78,12.58v40.05
		c0.09,0,5.51,7.26,9.09,12.36h468.86c3.49-5.1,9.08-12.15,9.2-12.15V19.23C505.01,19.23,504.93,19.31,504.88,19.24z"/>
	<path class="st0" d="M504.85,19.27c-3.5-4.43-5.51-6.99-8.83-12.36H26.73c-4.39,6.32-4.32,6.46-8.77,12.56v39.99
		c0.09,0,5.51,7.25,9.08,12.35h468.81c3.48-5.1,9.07-12.14,9.19-12.14V19.26C504.98,19.26,504.89,19.33,504.85,19.27z"/>
	<path class="st0" d="M501.46,21.07c-3.1-5.13-4.88-8.11-7.82-14.33H29.14c-3.89,7.33-3.83,7.49-7.77,14.56v44.17
		c0.08,0,4.88,8.4,8.05,14.31H493.5c3.09-5.91,8.04-14.07,8.14-14.06V21.05C501.58,21.06,501.51,21.15,501.46,21.07z"/>
	<path class="st1" d="M297.04,57.14c-0.47,0.82-0.9,1.74-1.49,2.57c0.84-0.87,1.42-2.04,1.88-2.87c0.54-0.98,1.15-1.97,1.75-2.99
		C298.44,54.92,297.69,56,297.04,57.14z"/>
	<path class="st2" d="M511.5,15.05v50l-5.69,7.88c-1.78,2.28-3.67,4.77-5.22,6.96h-85.48V0.12h85.59l0.75,1.04l0.08,0.12l7.17,9.91
		l0.05,0.06L511.5,15.05z"/>
</g>
</svg>
