<?xml version="1.0" encoding="utf-8"?>
<!-- Generator: Adobe Illustrator 28.1.0, SVG Export Plug-In . SVG Version: 6.00 Build 0)  -->
<svg version="1.1" id="Layer_1" xmlns="http://www.w3.org/2000/svg" xmlns:xlink="http://www.w3.org/1999/xlink" x="0px" y="0px"
	 viewBox="0 0 523 80" style="enable-background:new 0 0 523 80;" xml:space="preserve">
<style type="text/css">
	.st0{fill:#E6D3B5;}
	.st1{opacity:0.3;fill:#E1CEB0;}
	.st2{opacity:0.3;fill:#F4F0EA;}
	.st3{opacity:0.2;fill:#F4F0EA;}
	.st4{opacity:0.2;fill:#0D0D0B;}
	.st5{opacity:0.3;fill:#0D0D0B;}
	.st6{opacity:0.35;fill:#0D0D0B;}
	.st7{fill:#FCCBA1;}
	.st8{fill:#A38955;}
	.st9{fill:#CCB287;}
	.st10{fill:#D6BA93;}
	.st11{fill:#1F86E2;}
	.st12{fill:#0D60AC;}
	.st13{fill:url(#SVGID_1_);}
	.st14{fill:url(#SVGID_00000093878192002372563980000017319429555143014797_);}
	.st15{fill:url(#SVGID_00000126283002969292044080000015856977433820150185_);}
	.st16{fill:url(#SVGID_00000174601458147892053240000002493603339547740822_);}
	.st17{fill:url(#SVGID_00000173862061749642313900000014849473195353710989_);}
	.st18{fill:url(#SVGID_00000046308517470129723010000013134627087070657964_);}
	.st19{fill:url(#SVGID_00000044871040666852517460000005088090622583588542_);}
	.st20{fill:url(#SVGID_00000049923360491744418360000001115138621757117854_);}
	.st21{fill:url(#SVGID_00000012446196032785973170000007688029478840054461_);}
	.st22{fill:url(#SVGID_00000096029180438304210930000010688516653873278133_);}
	.st23{fill:url(#SVGID_00000123426092892887165490000008369489845730565055_);}
	.st24{fill:url(#SVGID_00000164473681342112795640000004710177793026628504_);}
	.st25{fill:url(#SVGID_00000131340418146421824490000014331284082336438411_);}
	.st26{fill:url(#SVGID_00000085212262875223055980000014601667631512802220_);}
	.st27{fill:url(#SVGID_00000098920993855220808270000012143899805477336738_);}
	.st28{fill:url(#SVGID_00000170249305262245509190000011831267925277921704_);}
	.st29{fill:url(#SVGID_00000171692007499541643360000010927398364474400901_);}
	.st30{fill:url(#SVGID_00000165917792668509816110000004777152030460232889_);}
	.st31{opacity:0.5;}
	.st32{fill:url(#SVGID_00000106111155013421671510000003217085072109223307_);}
	.st33{opacity:0.43;}
	.st34{fill:#E3FBB6;}
	.st35{fill:url(#SVGID_00000119825968645195159230000014920370045669800841_);}
	.st36{opacity:0.31;}
	.st37{fill:url(#SVGID_00000039851960182447686180000008593911188605105585_);}
	.st38{fill:url(#SVGID_00000171706753975532405090000017609387570122693798_);}
	.st39{fill:url(#SVGID_00000118386891101354419950000005526320477752192651_);}
	.st40{fill:url(#SVGID_00000152222254231329697900000004608587792018235534_);}
	.st41{fill:url(#SVGID_00000109749160321430254770000011586304916334152361_);}
	.st42{fill:#D1F886;}
	.st43{fill:#B2F335;}
	.st44{fill:url(#SVGID_00000099631752438702711010000006452388305898075564_);}
	.st45{fill:#39B54A;}
	.st46{fill:#8CD901;}
	.st47{fill:#C3A383;}
	.st48{fill:url(#SVGID_00000178914410279548399960000018381509018884912540_);}
	.st49{fill:url(#SVGID_00000036940400256037365540000017980629728185250444_);}
	.st50{fill:url(#SVGID_00000122692969578574913700000006334925520223316387_);}
	.st51{fill:url(#SVGID_00000011009343766717390720000016970361492779712160_);}
	.st52{fill:url(#SVGID_00000140013148129229723440000004972006936985342873_);}
	.st53{fill:url(#SVGID_00000141416602200078150470000006295365520168267420_);}
	.st54{fill:url(#SVGID_00000001641094984498528560000016602611329045678527_);}
	.st55{fill:url(#SVGID_00000110451704758215373170000018163716195750602626_);}
	.st56{fill:url(#SVGID_00000082337129459692780780000017894629538672346524_);}
	.st57{fill:url(#SVGID_00000054971669283166542120000016487328980198952097_);}
	.st58{fill:url(#SVGID_00000083061082940569162880000012822738536809163674_);}
	.st59{fill:url(#SVGID_00000143614862809209173370000015910482647209577122_);}
	.st60{fill:url(#SVGID_00000116211122465794300540000007302093318124097965_);}
	.st61{fill:url(#SVGID_00000070082582010320298060000009541577132965009048_);}
	.st62{fill:url(#SVGID_00000146488359129827954450000003103082108975859642_);}
	.st63{fill:url(#SVGID_00000062871882621787674770000016259215519683091584_);}
	.st64{fill:url(#SVGID_00000031186542011462237140000018184594574135186596_);}
	.st65{fill:url(#SVGID_00000055695695283998823770000005827108184775888052_);}
	.st66{fill:url(#SVGID_00000063597327505865415050000014650904000470978983_);}
	.st67{fill:url(#SVGID_00000025419251343878683830000004560846299477759616_);}
	.st68{fill:url(#SVGID_00000169538474604221135840000005357296064500847535_);}
	.st69{fill:url(#SVGID_00000062912717161067435990000012755497998228105116_);}
	.st70{fill:url(#SVGID_00000165948563530110728380000008892871145985363123_);}
	.st71{fill:url(#SVGID_00000175290650004936163600000015836717109681144511_);}
	.st72{fill:url(#SVGID_00000013895123292578847250000004189921924321593752_);}
	.st73{fill:url(#SVGID_00000126315413636831222720000004611197277581160105_);}
</style>
<g>
	<path class="st11" d="M511.5,15.05v50l-5.69,7.88c-1.78,2.28-3.67,4.77-5.22,6.96H22.28c-0.59-0.82-1.23-1.68-1.89-2.56l-0.65-0.89
		l-0.12-0.15L11.5,65.05v-50L22.3,0.12h478.49c0.23,0.36,0.45,0.7,0.66,1.04l0.08,0.12c2.67,4.11,4.69,6.82,7.17,9.91l0.05,0.06
		L511.5,15.05z"/>
	<path class="st11" d="M500.52,0.12c-0.06,0.09-0.1,0.19-0.14,0.28c-0.16,0.06-0.3,0.14-0.41,0.26c-0.81,0.87-1.37,1.77-2.12,2.6
		c-0.73,0.44-1.49,0.86-1.99,1.39c-0.13,0.15-0.27,0.3-0.39,0.45c-0.81,0.51-1.59,1.04-2.25,1.65c-0.05,0.04-0.08,0.08-0.12,0.12
		c-0.02,0.01-0.04,0.02-0.04,0.04c-0.13,0.11-0.25,0.23-0.36,0.36c-0.58,0.64,0.06,1.26,0.83,1.38c0.01,0.35,0.25,0.66,0.6,0.85
		c-0.84,1.37-1.37,2.77-0.23,4.31c0.1,0.12,0.2,0.21,0.33,0.28c-3.42,0.19-6.88,0.23-10.33,0.16c-1.22-0.03-27.23-0.06-68.8-0.1
		c-88.9-0.06-248.98-0.15-389.75-0.22c-1.14,0-2.3,0-3.45,0c-0.01,0-0.04,0-0.05,0c-0.71,0-1.41,0-2.12,0
		c-0.29-2.27-0.7-4.52-1.14-6.76c4.6-1.72,8.72-4.18,12.41-6.9c0.07-0.04,0.11-0.1,0.17-0.15h383.93H500.52z"/>
	<path class="st2" d="M487.49,53.56c-0.78,2.24-1.49,4.77-2.46,7.02c1.39-2.38,2.34-5.58,3.1-7.84c0.9-2.67,1.9-5.4,2.89-8.17
		C489.8,47.51,488.57,50.46,487.49,53.56z"/>
	<path class="st11" d="M504.88,19.24c-3.51-4.43-5.51-7-8.84-12.38H26.71c-4.4,6.33-4.33,6.47-8.78,12.58v40.05
		c0.09,0,5.51,7.26,9.09,12.36h468.86c3.49-5.1,9.08-12.15,9.2-12.15V19.23C505.01,19.23,504.93,19.31,504.88,19.24z"/>
	<path class="st11" d="M504.85,19.27c-3.5-4.43-5.51-6.99-8.83-12.36H26.73c-4.39,6.32-4.32,6.46-8.77,12.56v39.99
		c0.09,0,5.51,7.25,9.08,12.35h468.81c3.48-5.1,9.07-12.14,9.19-12.14V19.26C504.98,19.26,504.89,19.33,504.85,19.27z"/>
	<path class="st11" d="M501.46,21.07c-3.1-5.13-4.88-8.11-7.82-14.33H29.14c-3.89,7.33-3.83,7.49-7.77,14.56v44.17
		c0.08,0,4.88,8.4,8.05,14.31H493.5c3.09-5.91,8.04-14.07,8.14-14.06V21.05C501.58,21.06,501.51,21.15,501.46,21.07z"/>
	<path class="st2" d="M297.04,57.14c-0.47,0.82-0.9,1.74-1.49,2.57c0.84-0.87,1.42-2.04,1.88-2.87c0.54-0.98,1.15-1.97,1.75-2.99
		C298.44,54.92,297.69,56,297.04,57.14z"/>
	<path class="st12" d="M107.89,0.12v79.77h-85.6c-0.59-0.82-1.23-1.68-1.89-2.56l-0.65-0.89l-0.12-0.15L11.5,65.05v-50L22.3,0.12
		H107.89z"/>
	<path class="st12" d="M511.5,15.05v50l-5.69,7.88c-1.78,2.28-3.67,4.77-5.22,6.96h-85.48V0.12h85.59l0.75,1.04l0.08,0.12l7.17,9.91
		l0.05,0.06L511.5,15.05z"/>
</g>
</svg>
