<?xml version="1.0" encoding="utf-8"?>
<!-- Generator: Adobe Illustrator 28.1.0, SVG Export Plug-In . SVG Version: 6.00 Build 0)  -->
<svg version="1.1" id="Layer_1" xmlns="http://www.w3.org/2000/svg" xmlns:xlink="http://www.w3.org/1999/xlink" x="0px" y="0px"
	 viewBox="0 0 523 102.5" style="enable-background:new 0 0 523 102.5;" xml:space="preserve">
<style type="text/css">
	.st0{fill:#E6D3B5;}
	.st1{opacity:0.3;fill:#E1CEB0;}
	.st2{opacity:0.3;fill:#F4F0EA;}
	.st3{opacity:0.2;fill:#F4F0EA;}
	.st4{opacity:0.2;fill:#0D0D0B;}
	.st5{opacity:0.3;fill:#0D0D0B;}
	.st6{opacity:0.35;fill:#0D0D0B;}
	.st7{fill:#FCCBA1;}
	.st8{fill:#A38955;}
	.st9{fill:#CCB287;}
	.st10{fill:#D6BA93;}
	.st11{fill:#1F86E2;}
	.st12{fill:#0D60AC;}
	.st13{fill:url(#SVGID_1_);}
	.st14{fill:url(#SVGID_00000108995231341620952660000016789008035965421194_);}
	.st15{fill:url(#SVGID_00000161626905861593732800000013836508335697306043_);}
	.st16{fill:url(#SVGID_00000158024891169415961060000018174810250091483299_);}
	.st17{fill:url(#SVGID_00000058549169611599151280000013005417956872597148_);}
	.st18{fill:url(#SVGID_00000147179838864100496960000006409657634337727131_);}
	.st19{fill:url(#SVGID_00000124848527601604771110000005246257177360381599_);}
	.st20{fill:url(#SVGID_00000000907880503077277730000006770608326950838447_);}
	.st21{fill:url(#SVGID_00000023990115340474837360000007342911214176710561_);}
	.st22{fill:url(#SVGID_00000098916419782698482640000008814952249590397341_);}
	.st23{fill:url(#SVGID_00000132785480844734100590000012785261149147686787_);}
	.st24{fill:url(#SVGID_00000121962740368023638180000017154466730984336007_);}
	.st25{fill:url(#SVGID_00000095339428289731585470000016125718061497759651_);}
	.st26{fill:url(#SVGID_00000016757048572898623310000004275298243739842494_);}
	.st27{fill:url(#SVGID_00000170251376911258909800000007678199883195974847_);}
	.st28{fill:url(#SVGID_00000174602307239195220390000005772563640492052921_);}
	.st29{fill:url(#SVGID_00000121988698776354546890000009108202432057259659_);}
	.st30{fill:url(#SVGID_00000009578575099420697650000014270193188008802724_);}
	.st31{opacity:0.5;}
	.st32{fill:url(#SVGID_00000083053974682670567950000007515611405593733806_);}
	.st33{opacity:0.43;}
	.st34{fill:#E3FBB6;}
	.st35{fill:url(#SVGID_00000123428539696339168260000017365750679550197926_);}
	.st36{opacity:0.31;}
	.st37{fill:url(#SVGID_00000174567453956423146320000006774012944031218825_);}
	.st38{fill:url(#SVGID_00000103228054935419747990000015476895115525518767_);}
	.st39{fill:url(#SVGID_00000069370614301377342460000016503620085946892985_);}
	.st40{fill:url(#SVGID_00000095298122503230996940000001690888146140608676_);}
	.st41{fill:url(#SVGID_00000060016038515585093310000000094888490833522367_);}
	.st42{fill:#D1F886;}
	.st43{fill:#B2F335;}
	.st44{fill:url(#SVGID_00000000207500805925360960000005215744293852762007_);}
	.st45{fill:#39B54A;}
	.st46{fill:#8CD901;}
	.st47{fill:#C3A383;}
	.st48{fill:url(#SVGID_00000044148453049805845070000002057727265586248881_);}
	.st49{fill:url(#SVGID_00000179621991615748077630000001682574141986477707_);}
	.st50{fill:url(#SVGID_00000036951834674324207840000013130630223637204140_);}
	.st51{fill:url(#SVGID_00000005234740226037556080000003327797236160374695_);}
	.st52{fill:url(#SVGID_00000026126847655933055030000018365099236962935709_);}
	.st53{fill:url(#SVGID_00000121981436598977109120000010387015657791468941_);}
	.st54{fill:url(#SVGID_00000005987526851557457770000012042308033273044648_);}
	.st55{fill:url(#SVGID_00000149357160692159372330000016760453879773103039_);}
	.st56{fill:url(#SVGID_00000114033427122164205840000006767991628904024499_);}
	.st57{fill:url(#SVGID_00000070082213999289721200000003024096893013882530_);}
	.st58{fill:url(#SVGID_00000086691960561609032340000013652543916561938611_);}
	.st59{fill:url(#SVGID_00000101791362190473064510000015648543289095286681_);}
	.st60{fill:url(#SVGID_00000127730766300115412660000010552064691278804110_);}
	.st61{fill:url(#SVGID_00000085227443073732901770000018113817232567806884_);}
	.st62{fill:url(#SVGID_00000012431882645856609690000006949725129504854922_);}
	.st63{fill:url(#SVGID_00000148633460674770002210000011557716757759070597_);}
	.st64{fill:url(#SVGID_00000022558543074208922300000001229247922241376156_);}
	.st65{fill:url(#SVGID_00000090272210032838206150000005525340077530357425_);}
	.st66{fill:url(#SVGID_00000060726223837554821920000008753262667768499124_);}
	.st67{fill:url(#SVGID_00000022535017874058736350000000723875328662545031_);}
	.st68{fill:url(#SVGID_00000182518397589142866790000006845095289800203154_);}
	.st69{fill:url(#SVGID_00000143605487143162486340000004318789609422044324_);}
	.st70{fill:url(#SVGID_00000088126065866779986190000012592185569369945993_);}
	.st71{fill:url(#SVGID_00000050661069955466765350000000527604289101310636_);}
	.st72{fill:url(#SVGID_00000012449763801949419550000014075378703428373389_);}
	.st73{fill:url(#SVGID_00000160188550728646635500000016259026114976701321_);}
</style>
<g>
	<path class="st12" d="M424.61,30.46c-5.92-4.44-9.3-7.01-14.92-12.4H113.73c-7.42,6.34-7.3,6.48-14.82,12.6v40.11
		c0.15-0.01,9.3,7.27,15.34,12.38h295.17c5.88-5.11,15.32-12.18,15.53-12.17V30.45C424.83,30.45,424.69,30.52,424.61,30.46z"/>
	<path class="st12" d="M436.08,25.97c-7.27-5.27-11.43-8.32-18.33-14.72H105.57c-9.12,7.52-8.98,7.69-18.22,14.96v50.34
		c0.18,0,11.43,8.63,18.86,14.7h311.21c7.23-6.07,18.83-14.46,19.08-14.45V25.95C436.36,25.96,436.19,26.05,436.08,25.97z"/>
	<path class="st12" d="M410.54,24.97c-1.16-1.54-0.62-2.95,0.23-4.32c-0.36-0.18-0.6-0.5-0.61-0.85c-0.79-0.12-1.43-0.74-0.85-1.38
		c0.78-0.85,1.77-1.53,2.8-2.18c0.13-0.15,0.26-0.3,0.39-0.45c0.5-0.53,1.27-0.95,2.01-1.4c0.76-0.83,1.33-1.73,2.15-2.61
		c0.1-0.11,0.25-0.2,0.41-0.26c0.05-0.09,0.09-0.19,0.15-0.27H105.87c2.7,3.42,6.68,6.39,9.15,9.91c6.59,0.14,13.04,1.21,19.45,2.3
		c3.53,0.6,7.04,1.15,10.66,1.35c3.4,0.18,6.8,0.18,10.21,0.17c6.63-0.02,238.47,0.31,245.09,0.44c3.48,0.07,6.98,0.03,10.44-0.16
		C410.75,25.19,410.64,25.1,410.54,24.97z"/>
	<path class="st2" d="M106.21,37.58c14.49-4.25,4.01-18.33-3.43-24.05c-7.8,6.46-8.34,7.13-16.29,13.39
		c0.06,0.02,0.11,0.03,0.16,0.06c5.99,3.6,14.92,5.77,19.51,10.55C106.19,37.55,106.2,37.57,106.21,37.58z"/>
	<path class="st3" d="M110.37,52.3c-0.43-5.49,0.33-12.06-5.6-16.06c-5.26-3.54-11.82-5.73-17.42-8.96v49.1
		c2.67-1.28,5.58-2.27,8.1-3.71c1.74-0.99,3.43-2.02,5.58-2.39c0.85-0.15,1.42,0.31,1.54,0.82c1.64,0.75,4.48,2.85,5.84,4.9
		c1.29-5.82,2.21-11.42,2.34-17.45C110.89,52.09,110.88,58.75,110.37,52.3z"/>
	<path class="st4" d="M116.8,77.92c1.36-4.33,0.63-9.69-0.99-13.99c-3.62,0.53-6.85,1.29-9.39,2.45
		c-4.75,2.17-7.33,7.13-19.07,10.78c3.61,2.75,13.53,9.86,18.86,14.09C109.99,86.94,115.16,83.13,116.8,77.92z"/>
	<path class="st5" d="M106.21,91.25h311.21c-5.95-4.92-9.97-10.59-16-16.2c-5.89-5.47-11.75-10.74-18.02-15.88
		c22.71-8.61-229.09,0.3-265.07,4.43c1.35,3.72,1.34,7.73,0.37,11.51C116.97,81.9,111,85.72,106.21,91.25z"/>
	<path class="st4" d="M409.68,33.21c3.91-0.59,8.45-0.03,11.49-2.46c0.53-0.43,0.84,0.8,1.29,1.1c0.06-0.04,1.34-1.11,1.42-1.15
		c4.16-1.8,7.6-3.67,12.2-4.74c0,0,0,0.01,0,0c-7.04-5.1-11.19-8.15-17.71-14.15c-1.41-0.57-2.53,1.68-3.58,2.59
		c-3.42,3.02-7.47,4.87-12.28,15.37c-0.64,1.4-1.19,3.08-1.69,4.91C403.78,34.21,406.73,33.65,409.68,33.21z"/>
	<path class="st5" d="M423.73,31c-0.53,0.23-0.49,1.39-0.85,1.16c-3.08,2.4-7.38,2.38-11.5,2.8c-3.75,0.38-7.4,1.1-11.07,1.7
		c-2.29,9.43-3.7,7.74-8.66,15.68c2.75,1.33,5.43,2.76,8.39,3.8c4.3,1.5,8.54,3.17,12.43,5.24c4.48,2.37,7.24,6.32,11.56,8.85
		c3.24,1.89,8.55,5.4,12.46,6.58V25.95C432.21,26.98,427.63,29.31,423.73,31z"/>
	<path class="st6" d="M426.63,71.6c-4.96-2.9-9.88-5.94-15.1-8.56c-4.54-2.28-9.52-3.82-14.14-5.94c-2.21-1.02-4.35-2.1-6.54-3.12
		c-1.13,1.48-2.42,2.74-3.92,3.66c-0.29,0.18-0.62,0.33-0.93,0.49c5.32,4.23,11.91,7.85,15.34,13.08
		c4.93,7.51,9.38,14.33,16.4,20.03c6.58-5.4,16.97-13.09,18.75-14.26C432.61,76,429.86,73.49,426.63,71.6z"/>
	<path class="st12" d="M424.66,30.43c-5.92-4.44-9.31-7.02-14.93-12.41H113.69c-7.42,6.34-7.31,6.49-14.84,12.61V70.8
		c0.15,0,9.31,7.28,15.36,12.4h295.24C415.35,78.07,424.8,71,425,71.01V30.42C424.88,30.42,424.74,30.5,424.66,30.43z"/>
</g>
</svg>
